<?xml version="1.0" encoding="utf-8"?>
<!-- Designer @JMSsMarcelo  -->
<svg version="1.1" id="analog" xmlns="http://www.w3.org/2000/svg" xmlns:xlink="http://www.w3.org/1999/xlink" x="0px" y="0px"
	 width="100px" height="100px" viewBox="0 0 600 600" style="enable-background:new 0 0 600 600;" xml:space="preserve">
<g id="bg">
	<circle style="fill:#FFFFFF;" cx="300" cy="300" r="300"/>
</g>
<path id="border" d="M300,20c37.809,0,74.475,7.4,108.983,21.996c33.34,14.102,63.286,34.293,89.007,60.014
	s45.913,55.668,60.015,89.007C572.6,225.525,580,262.191,580,300s-7.4,74.475-21.996,108.983
	c-14.102,33.34-34.293,63.286-60.015,89.007s-55.668,45.913-89.007,60.015C374.475,572.6,337.809,580,300,580
	s-74.475-7.4-108.982-21.996c-33.34-14.102-63.286-34.293-89.007-60.015s-45.913-55.668-60.014-89.007
	C27.4,374.475,20,337.809,20,300s7.4-74.475,21.996-108.982c14.102-33.34,34.293-63.286,60.014-89.007s55.668-45.913,89.007-60.014
	C225.525,27.4,262.191,20,300,20 M300,0C134.315,0,0,134.315,0,300s134.315,300,300,300s300-134.315,300-300S465.685,0,300,0L300,0z
	"/>
<g id="jms">
	<path d="M235.282,172.232h1.393v7.219c0,2.865-1.408,3.746-3.265,3.746c-0.513,0-1.137-0.112-1.489-0.256l0.208-1.136
		c0.288,0.112,0.705,0.208,1.169,0.208c1.248,0,1.984-0.561,1.984-2.673V172.232z"/>
	<path d="M245.956,179.083c0,2.865-1.984,4.114-3.857,4.114c-2.097,0-3.713-1.537-3.713-3.986c0-2.593,1.696-4.114,3.841-4.114
		C244.452,175.097,245.956,176.714,245.956,179.083z M239.81,179.163c0,1.697,0.977,2.977,2.354,2.977
		c1.345,0,2.353-1.265,2.353-3.009c0-1.312-0.656-2.977-2.32-2.977C240.53,176.154,239.81,177.69,239.81,179.163z"/>
	<path d="M247.537,181.58c0.416,0.272,1.152,0.56,1.856,0.56c1.024,0,1.505-0.512,1.505-1.152c0-0.672-0.4-1.041-1.44-1.425
		c-1.393-0.496-2.049-1.264-2.049-2.193c0-1.249,1.009-2.273,2.673-2.273c0.784,0,1.473,0.224,1.905,0.48l-0.353,1.024
		c-0.304-0.192-0.864-0.448-1.585-0.448c-0.832,0-1.296,0.48-1.296,1.056c0,0.641,0.464,0.929,1.473,1.312
		c1.345,0.512,2.032,1.185,2.032,2.337c0,1.36-1.056,2.321-2.896,2.321c-0.849,0-1.633-0.208-2.178-0.528L247.537,181.58z"/>
	<path d="M254.85,179.403c0.032,1.905,1.248,2.689,2.657,2.689c1.008,0,1.616-0.176,2.145-0.4l0.24,1.008
		c-0.496,0.224-1.345,0.48-2.577,0.48c-2.385,0-3.81-1.569-3.81-3.906s1.377-4.178,3.634-4.178c2.528,0,3.201,2.225,3.201,3.649
		c0,0.288-0.032,0.512-0.048,0.656H254.85z M258.979,178.395c0.016-0.896-0.368-2.289-1.953-2.289c-1.425,0-2.049,1.313-2.161,2.289
		H258.979z"/>
	<path d="M274.613,178.283c-0.08-1.505-0.177-3.313-0.16-4.658h-0.049c-0.368,1.265-0.815,2.609-1.36,4.098l-1.904,5.234h-1.057
		l-1.744-5.138c-0.513-1.521-0.944-2.913-1.249-4.194h-0.032c-0.031,1.345-0.111,3.153-0.208,4.77l-0.288,4.626h-1.328l0.752-10.789
		h1.777l1.84,5.218c0.448,1.329,0.816,2.513,1.089,3.633h0.048c0.272-1.088,0.656-2.272,1.137-3.633l1.921-5.218h1.776l0.672,10.789
		h-1.36L274.613,178.283z"/>
	<path d="M282.723,183.021l-0.112-0.977h-0.048c-0.432,0.608-1.265,1.153-2.369,1.153c-1.568,0-2.368-1.104-2.368-2.225
		c0-1.873,1.664-2.897,4.657-2.881v-0.16c0-0.641-0.176-1.793-1.761-1.793c-0.72,0-1.473,0.224-2.017,0.576l-0.32-0.928
		c0.641-0.416,1.569-0.688,2.545-0.688c2.369,0,2.945,1.617,2.945,3.169v2.897c0,0.672,0.032,1.329,0.128,1.857H282.723z
		 M282.515,179.067c-1.536-0.032-3.281,0.24-3.281,1.745c0,0.913,0.608,1.345,1.328,1.345c1.009,0,1.649-0.64,1.873-1.296
		c0.048-0.144,0.08-0.304,0.08-0.448V179.067z"/>
	<path d="M286.145,177.69c0-0.913-0.017-1.697-0.064-2.417h1.232l0.048,1.521h0.064c0.352-1.041,1.2-1.697,2.145-1.697
		c0.16,0,0.272,0.016,0.4,0.048v1.328c-0.145-0.032-0.288-0.048-0.48-0.048c-0.992,0-1.696,0.752-1.889,1.809
		c-0.032,0.192-0.064,0.417-0.064,0.656v4.13h-1.392V177.69z"/>
	<path d="M296.738,182.732c-0.368,0.192-1.185,0.448-2.225,0.448c-2.337,0-3.857-1.585-3.857-3.954c0-2.385,1.633-4.114,4.161-4.114
		c0.833,0,1.569,0.208,1.953,0.4l-0.32,1.088c-0.336-0.192-0.864-0.368-1.633-0.368c-1.776,0-2.736,1.312-2.736,2.929
		c0,1.792,1.152,2.897,2.688,2.897c0.801,0,1.329-0.208,1.729-0.384L296.738,182.732z"/>
	<path d="M299.073,179.403c0.031,1.905,1.248,2.689,2.656,2.689c1.009,0,1.617-0.176,2.146-0.4l0.24,1.008
		c-0.496,0.224-1.345,0.48-2.577,0.48c-2.385,0-3.81-1.569-3.81-3.906s1.376-4.178,3.634-4.178c2.528,0,3.201,2.225,3.201,3.649
		c0,0.288-0.032,0.512-0.049,0.656H299.073z M303.202,178.395c0.017-0.896-0.368-2.289-1.952-2.289
		c-1.425,0-2.049,1.313-2.161,2.289H303.202z"/>
	<path d="M306.305,171.656h1.408v11.365h-1.408V171.656z"/>
	<path d="M317.092,179.083c0,2.865-1.985,4.114-3.858,4.114c-2.097,0-3.713-1.537-3.713-3.986c0-2.593,1.696-4.114,3.842-4.114
		C315.587,175.097,317.092,176.714,317.092,179.083z M310.945,179.163c0,1.697,0.976,2.977,2.353,2.977
		c1.345,0,2.353-1.265,2.353-3.009c0-1.312-0.656-2.977-2.32-2.977C311.665,176.154,310.945,177.69,310.945,179.163z"/>
	<path d="M331.348,177.578c0,2.753-2.112,4.962-4.817,4.962c-2.722,0-4.866-2.209-4.866-4.962c0-2.721,2.145-4.93,4.866-4.93
		C329.235,172.648,331.348,174.857,331.348,177.578z M322.465,177.626c0,2.385,1.761,4.258,4.065,4.258
		c2.257,0,4.018-1.873,4.018-4.306c0-2.385-1.761-4.273-4.018-4.273C324.226,173.305,322.465,175.193,322.465,177.626z
		 M328.482,175.753c-0.208-0.112-0.8-0.368-1.552-0.368c-1.505,0-2.241,0.96-2.241,2.241c0,1.249,0.784,2.257,2.257,2.257
		c0.641,0,1.248-0.176,1.616-0.416l0.192,0.608c-0.561,0.368-1.297,0.496-1.969,0.496c-1.856,0-2.929-1.28-2.929-2.897
		c0-1.825,1.44-2.977,3.057-2.977c0.833,0,1.553,0.24,1.761,0.432L328.482,175.753z"/>
	<path d="M336.032,183.021v-0.864l1.104-1.073c2.656-2.529,3.857-3.874,3.873-5.442c0-1.057-0.512-2.033-2.064-2.033
		c-0.944,0-1.729,0.48-2.209,0.88l-0.448-0.993c0.72-0.608,1.744-1.056,2.945-1.056c2.24,0,3.185,1.537,3.185,3.025
		c0,1.921-1.393,3.474-3.585,5.586l-0.832,0.768v0.032h4.674v1.168H336.032z"/>
	<path d="M351.153,177.707c0,3.537-1.312,5.49-3.617,5.49c-2.033,0-3.409-1.905-3.441-5.346c0-3.49,1.505-5.41,3.617-5.41
		C349.905,172.44,351.153,174.393,351.153,177.707z M345.503,177.866c0,2.705,0.833,4.242,2.113,4.242
		c1.44,0,2.129-1.681,2.129-4.337c0-2.561-0.656-4.242-2.113-4.242C346.399,173.529,345.503,175.033,345.503,177.866z"/>
	<path d="M352.447,183.021v-0.864l1.104-1.073c2.656-2.529,3.857-3.874,3.873-5.442c0-1.057-0.512-2.033-2.064-2.033
		c-0.944,0-1.729,0.48-2.209,0.88l-0.448-0.993c0.72-0.608,1.744-1.056,2.945-1.056c2.24,0,3.185,1.537,3.185,3.025
		c0,1.921-1.393,3.474-3.585,5.586l-0.832,0.768v0.032h4.674v1.168H352.447z"/>
	<path d="M360.991,181.404c0.4,0.256,1.328,0.656,2.305,0.656c1.809,0,2.369-1.152,2.353-2.017
		c-0.016-1.457-1.328-2.081-2.688-2.081h-0.784v-1.056h0.784c1.024,0,2.32-0.528,2.32-1.761c0-0.833-0.527-1.569-1.824-1.569
		c-0.832,0-1.633,0.368-2.081,0.688l-0.368-1.024c0.544-0.4,1.601-0.8,2.722-0.8c2.049,0,2.977,1.216,2.977,2.481
		c0,1.072-0.64,1.985-1.921,2.449v0.032c1.281,0.256,2.321,1.216,2.321,2.673c0,1.665-1.297,3.122-3.794,3.122
		c-1.168,0-2.192-0.368-2.705-0.705L360.991,181.404z"/>
</g>
<g id="hoursPoints">
	<g>
		<path d="M64.343,158.17l-5,8.66l17.336,10.009c1.614-2.921,3.275-5.812,4.999-8.661L64.343,158.17L64.343,158.17z"/>
	</g>
	<g>
		<path d="M166.83,59.343l-8.66,5l10.008,17.335c2.849-1.724,5.74-3.385,8.661-4.999L166.83,59.343L166.83,59.343z"/>
	</g>
	<g>
		<path d="M433.17,59.343l-10.009,17.336c2.921,1.614,5.812,3.275,8.661,4.999l10.008-17.335L433.17,59.343L433.17,59.343z"/>
	</g>
	<g>
		<path d="M45.063,295H25v10h20.063c-0.032-1.664-0.063-3.328-0.063-5S45.031,296.664,45.063,295L45.063,295z"/>
	</g>
	<g>
		<path d="M305,25h-10v20.063c1.664-0.032,3.328-0.063,5-0.063s3.336,0.031,5,0.063V25L305,25z"/>
	</g>
	<g>
		<path d="M535.657,158.17l-17.335,10.008c1.724,2.849,3.385,5.74,4.999,8.661l17.336-10.009L535.657,158.17L535.657,158.17z"/>
	</g>
	<g>
		<path d="M523.321,423.161c-1.614,2.921-3.275,5.812-4.999,8.661l17.335,10.008l5-8.66L523.321,423.161L523.321,423.161z"/>
	</g>
	<g>
		<path d="M575,295h-20.063c0.032,1.664,0.063,3.328,0.063,5s-0.031,3.336-0.063,5H575V295L575,295z"/>
	</g>
	<g>
		<path d="M431.822,518.322c-2.849,1.724-5.74,3.385-8.661,4.999l10.009,17.336l8.66-5L431.822,518.322L431.822,518.322z"/>
	</g>
	<g>
		<path d="M168.178,518.322l-10.008,17.335l8.66,5l10.009-17.336C173.918,521.707,171.027,520.046,168.178,518.322L168.178,518.322z
			"/>
	</g>
	<g>
		<path d="M305,554.937c-1.664,0.032-3.328,0.063-5,0.063s-3.336-0.031-5-0.063V575h10V554.937L305,554.937z"/>
	</g>
	<g>
		<path d="M76.679,423.161L59.343,433.17l5,8.66l17.335-10.008C79.954,428.973,78.293,426.082,76.679,423.161L76.679,423.161z"/>
	</g>
</g>
<g id="minutesPoints">
	<g>
		<path d="M217.398,37.687l-4.755,1.545l4.62,14.217c1.578-0.529,3.164-1.044,4.756-1.544L217.398,37.687L217.398,37.687z"/>
	</g>
	<g>
		<path d="M190.431,47.758l-4.568,2.034l6.085,13.667c1.514-0.693,3.04-1.365,4.569-2.03L190.431,47.758L190.431,47.758z"/>
	</g>
	<g>
		<path d="M245.27,30.49l-4.891,1.04l3.113,14.648c1.625-0.36,3.253-0.714,4.89-1.044L245.27,30.49L245.27,30.49z"/>
	</g>
	<g>
		<path d="M140.382,76.051l-4.045,2.939l8.82,12.139c1.338-0.993,2.682-1.978,4.04-2.946L140.382,76.051L140.382,76.051z"/>
	</g>
	<g>
		<path d="M26.768,268.768l-0.523,4.973l14.929,1.569c0.157-1.663,0.332-3.319,0.52-4.973L26.768,268.768L26.768,268.768z"/>
	</g>
	<g>
		<path d="M49.792,185.863l-2.034,4.568l13.671,6.087c0.664-1.53,1.337-3.055,2.03-4.569L49.792,185.863L49.792,185.863z"/>
	</g>
	<g>
		<path d="M39.232,212.643l-1.545,4.755l14.218,4.62c0.5-1.592,1.015-3.177,1.544-4.756L39.232,212.643L39.232,212.643z"/>
	</g>
	<g>
		<path d="M326.26,26.245l-1.569,14.929c1.663,0.157,3.319,0.332,4.973,0.52l1.569-14.927L326.26,26.245L326.26,26.245z"/>
	</g>
	<g>
		<path d="M31.529,240.379l-1.04,4.891l14.643,3.113c0.33-1.637,0.684-3.264,1.044-4.89L31.529,240.379L31.529,240.379z"/>
	</g>
	<g>
		<path d="M78.99,136.336l-2.939,4.045l12.132,8.814c0.968-1.357,1.953-2.702,2.946-4.04L78.99,136.336L78.99,136.336z"/>
	</g>
	<g>
		<path d="M97.308,114.131l-3.346,3.716l11.167,10.055c1.104-1.249,2.215-2.491,3.343-3.718L97.308,114.131L97.308,114.131z"/>
	</g>
	<g>
		<path d="M117.847,93.962l-3.716,3.346l10.052,11.164c1.227-1.127,2.469-2.239,3.718-3.343L117.847,93.962L117.847,93.962z"/>
	</g>
	<g>
		<path d="M273.741,26.245l-4.973,0.523l1.569,14.927c1.653-0.188,3.31-0.364,4.973-0.52L273.741,26.245L273.741,26.245z"/>
	</g>
	<g>
		<path d="M550.208,185.864l-13.667,6.085c0.693,1.514,1.365,3.04,2.03,4.569l13.671-6.087L550.208,185.864L550.208,185.864z"/>
	</g>
	<g>
		<path d="M521.01,136.337l-12.139,8.82c0.993,1.338,1.978,2.682,2.946,4.04l12.132-8.814L521.01,136.337L521.01,136.337z"/>
	</g>
	<g>
		<path d="M354.731,30.49l-3.113,14.643c1.637,0.33,3.264,0.684,4.89,1.044l3.113-14.648L354.731,30.49L354.731,30.49z"/>
	</g>
	<g>
		<path d="M568.471,240.379l-14.648,3.113c0.36,1.625,0.714,3.253,1.044,4.89l14.643-3.112L568.471,240.379L568.471,240.379z"/>
	</g>
	<g>
		<path d="M573.232,268.769l-14.927,1.569c0.188,1.653,0.363,3.31,0.52,4.973l14.929-1.569L573.232,268.769L573.232,268.769z"/>
	</g>
	<g>
		<path d="M560.768,212.643l-14.217,4.62c0.53,1.578,1.044,3.164,1.544,4.756l14.218-4.62L560.768,212.643L560.768,212.643z"/>
	</g>
	<g>
		<path d="M502.692,114.131l-11.164,10.052c1.127,1.227,2.239,2.469,3.343,3.718l11.167-10.055L502.692,114.131L502.692,114.131z"/>
	</g>
	<g>
		<path d="M382.603,37.687l-4.62,14.218c1.592,0.5,3.177,1.014,4.756,1.544l4.62-14.217L382.603,37.687L382.603,37.687z"/>
	</g>
	<g>
		<path d="M409.569,47.759l-6.087,13.671c1.53,0.664,3.055,1.337,4.569,2.03l6.085-13.667L409.569,47.759L409.569,47.759z"/>
	</g>
	<g>
		<path d="M482.153,93.963l-10.055,11.167c1.249,1.104,2.491,2.215,3.718,3.343l10.053-11.164L482.153,93.963L482.153,93.963z"/>
	</g>
	<g>
		<path d="M459.619,76.051l-8.814,12.132c1.357,0.968,2.702,1.953,4.04,2.946l8.82-12.139L459.619,76.051L459.619,76.051z"/>
	</g>
	<g>
		<path d="M408.051,536.541c-1.514,0.693-3.04,1.365-4.569,2.03l6.087,13.671l4.568-2.034L408.051,536.541L408.051,536.541z"/>
	</g>
	<g>
		<path d="M454.844,508.871c-1.338,0.993-2.682,1.978-4.04,2.946l8.814,12.132l4.045-2.939L454.844,508.871L454.844,508.871z"/>
	</g>
	<g>
		<path d="M329.663,558.306c-1.653,0.188-3.31,0.364-4.973,0.52l1.569,14.929l4.973-0.523L329.663,558.306L329.663,558.306z"/>
	</g>
	<g>
		<path d="M382.738,546.551c-1.578,0.529-3.164,1.044-4.756,1.544l4.62,14.218l4.755-1.545L382.738,546.551L382.738,546.551z"/>
	</g>
	<g>
		<path d="M494.87,472.098c-1.104,1.249-2.215,2.491-3.343,3.718l11.164,10.053l3.346-3.716L494.87,472.098L494.87,472.098z"/>
	</g>
	<g>
		<path d="M356.508,553.823c-1.625,0.36-3.253,0.714-4.89,1.044l3.113,14.643l4.891-1.04L356.508,553.823L356.508,553.823z"/>
	</g>
	<g>
		<path d="M475.816,491.528c-1.227,1.127-2.469,2.239-3.718,3.343l10.055,11.167l3.716-3.346L475.816,491.528L475.816,491.528z"/>
	</g>
	<g>
		<path d="M511.817,450.804c-0.968,1.357-1.953,2.702-2.946,4.04l12.139,8.82l2.939-4.045L511.817,450.804L511.817,450.804z"/>
	</g>
	<g>
		<path d="M558.826,324.69c-0.157,1.663-0.332,3.319-0.52,4.973l14.927,1.569l0.523-4.973L558.826,324.69L558.826,324.69z"/>
	</g>
	<g>
		<path d="M554.867,351.618c-0.33,1.637-0.684,3.264-1.044,4.89l14.648,3.113l1.04-4.891L554.867,351.618L554.867,351.618z"/>
	</g>
	<g>
		<path d="M548.095,377.982c-0.5,1.592-1.015,3.177-1.544,4.756l14.217,4.62l1.545-4.755L548.095,377.982L548.095,377.982z"/>
	</g>
	<g>
		<path d="M538.571,403.482c-0.664,1.53-1.337,3.055-2.03,4.569l13.667,6.085l2.034-4.568L538.571,403.482L538.571,403.482z"/>
	</g>
	<g>
		<path d="M51.905,377.982l-14.218,4.62l1.545,4.755l14.217-4.62C52.92,381.159,52.405,379.574,51.905,377.982L51.905,377.982z"/>
	</g>
	<g>
		<path d="M88.182,450.804l-12.132,8.814l2.939,4.045l12.139-8.82C90.135,453.506,89.151,452.161,88.182,450.804L88.182,450.804z"/>
	</g>
	<g>
		<path d="M61.429,403.482l-13.671,6.087l2.034,4.568l13.667-6.085C62.766,406.537,62.093,405.012,61.429,403.482L61.429,403.482z"
			/>
	</g>
	<g>
		<path d="M105.129,472.098l-11.167,10.055l3.346,3.716l11.164-10.053C107.345,474.589,106.233,473.347,105.129,472.098
			L105.129,472.098z"/>
	</g>
	<g>
		<path d="M41.174,324.69l-14.929,1.569l0.523,4.973l14.927-1.569C41.507,328.009,41.331,326.352,41.174,324.69L41.174,324.69z"/>
	</g>
	<g>
		<path d="M45.133,351.618L30.49,354.73l1.04,4.891l14.648-3.113C45.816,354.882,45.462,353.254,45.133,351.618L45.133,351.618z"/>
	</g>
	<g>
		<path d="M191.948,536.541l-6.085,13.667l4.568,2.034l6.087-13.671C194.987,537.906,193.462,537.234,191.948,536.541
			L191.948,536.541z"/>
	</g>
	<g>
		<path d="M217.261,546.55l-4.62,14.217l4.755,1.545l4.62-14.218C220.425,547.594,218.84,547.08,217.261,546.55L217.261,546.55z"/>
	</g>
	<g>
		<path d="M243.491,553.823l-3.113,14.648l4.891,1.04l3.113-14.643C246.744,554.537,245.117,554.183,243.491,553.823
			L243.491,553.823z"/>
	</g>
	<g>
		<path d="M270.336,558.306l-1.569,14.927l4.973,0.523l1.569-14.929C273.646,558.669,271.99,558.493,270.336,558.306
			L270.336,558.306z"/>
	</g>
	<g>
		<path d="M124.183,491.527l-10.053,11.164l3.716,3.346l10.055-11.167C126.653,493.766,125.411,492.655,124.183,491.527
			L124.183,491.527z"/>
	</g>
	<g>
		<path d="M145.156,508.871l-8.82,12.139l4.045,2.939l8.814-12.132C147.838,510.849,146.493,509.864,145.156,508.871
			L145.156,508.871z"/>
	</g>
</g>
<g id="hoursNumbers" style="opacity:0.5;">
	<path id="_x31_" d="M414.24,81.509c0.366-0.691,0.731-1.332,1.098-1.922c0.366-0.589,0.772-1.067,1.221-1.433
		c0.446-0.366,1.057-0.549,1.829-0.549c0.854,0,1.596,0.305,2.227,0.915s0.946,1.363,0.946,2.257v38.674
		c0,0.895-0.306,1.657-0.915,2.288c-0.61,0.631-1.363,0.945-2.258,0.945s-1.657-0.314-2.287-0.945
		c-0.631-0.63-0.945-1.393-0.945-2.288V90.231h-5.429c-0.692,0-1.271-0.223-1.739-0.671c-0.468-0.447-0.701-1.016-0.701-1.708
		c0-0.691,0.192-1.209,0.579-1.556c0.387-0.345,0.854-0.65,1.403-0.915c0.549-0.264,1.138-0.528,1.77-0.793
		c0.63-0.264,1.189-0.64,1.677-1.128C413.365,82.851,413.874,82.201,414.24,81.509z"/>
	<path id="_x32_" d="M488.153,171.681c0.935-1.667,2.165-3.081,3.69-4.24c1.525-1.159,3.242-2.063,5.154-2.714
		c1.911-0.65,3.822-0.976,5.734-0.976c2.276,0,4.392,0.356,6.344,1.067c1.952,0.712,3.639,1.699,5.063,2.958
		c1.423,1.261,2.531,2.776,3.324,4.545s1.189,3.711,1.189,5.825c0,2.44-0.488,4.463-1.464,6.07c-0.977,1.607-2.298,3.03-3.965,4.27
		c-1.668,1.241-3.62,2.45-5.856,3.629c-2.237,1.18-4.616,2.562-7.137,4.148c-1.018,0.651-1.922,1.333-2.715,2.043
		c-0.793,0.712-1.475,1.403-2.043,2.074c-0.57,0.671-1.007,1.292-1.312,1.861c-0.306,0.57-0.458,1.017-0.458,1.342
		c0,0.326,0.142,0.488,0.427,0.488h20.13c0.772,0,1.434,0.274,1.983,0.823c0.549,0.549,0.823,1.21,0.823,1.982
		c0,0.773-0.274,1.434-0.823,1.982c-0.55,0.549-1.211,0.824-1.983,0.824h-24.521c-1.139,0-2.095-0.396-2.867-1.189
		s-1.159-1.739-1.159-2.836c0-1.057,0.355-2.206,1.067-3.447c0.711-1.24,1.617-2.48,2.715-3.721c1.098-1.24,2.308-2.419,3.63-3.538
		c1.32-1.118,2.592-2.083,3.812-2.897c1.952-1.26,3.843-2.419,5.673-3.477c1.83-1.057,3.456-2.135,4.88-3.233
		c1.423-1.098,2.562-2.247,3.416-3.447c0.854-1.199,1.281-2.592,1.281-4.178c0-1.504-0.266-2.785-0.793-3.843
		c-0.529-1.057-1.23-1.921-2.104-2.592c-0.875-0.671-1.882-1.159-3.02-1.464c-1.14-0.305-2.318-0.458-3.538-0.458
		c-1.221,0-2.4,0.173-3.538,0.518c-1.139,0.346-2.156,0.845-3.05,1.495c-0.896,0.651-1.617,1.464-2.166,2.44
		s-0.823,2.074-0.823,3.294c0,1.302-0.336,2.278-1.007,2.928c-0.671,0.651-1.413,0.976-2.227,0.976s-1.546-0.314-2.195-0.946
		c-0.651-0.63-0.977-1.595-0.977-2.897C486.75,175.179,487.217,173.349,488.153,171.681z"/>
	<path id="_x33_" d="M528.175,284.613c-1.77,1.078-2.979,3-3.63,5.764c-0.204,0.773-0.56,1.342-1.067,1.708
		c-0.509,0.366-1.047,0.549-1.616,0.549c-0.896,0-1.627-0.284-2.196-0.854c-0.57-0.569-0.854-1.443-0.854-2.623
		c0-0.772,0.264-1.8,0.793-3.081c0.527-1.281,1.402-2.541,2.623-3.782c1.22-1.24,2.836-2.307,4.85-3.202
		c2.013-0.894,4.523-1.342,7.533-1.342c2.276,0,4.341,0.295,6.191,0.885c1.85,0.59,3.436,1.424,4.758,2.501
		c1.321,1.078,2.338,2.359,3.05,3.843c0.711,1.485,1.067,3.122,1.067,4.911c0,0.895-0.102,1.82-0.305,2.775
		c-0.204,0.956-0.57,1.86-1.098,2.714c-0.529,0.854-1.241,1.627-2.135,2.318c-0.896,0.692-2.014,1.241-3.355,1.647
		c0.854,0.163,1.8,0.479,2.837,0.945c1.036,0.468,2.002,1.149,2.897,2.044c0.894,0.895,1.646,2.043,2.257,3.446
		c0.609,1.403,0.915,3.142,0.915,5.216c0,2.317-0.468,4.32-1.403,6.008s-2.165,3.08-3.69,4.179s-3.264,1.921-5.216,2.471
		c-1.952,0.549-3.965,0.823-6.039,0.823c-2.888,0-5.419-0.427-7.594-1.281c-2.177-0.854-4.017-1.931-5.521-3.232
		c-1.505-1.301-2.634-2.725-3.386-4.271c-0.753-1.545-1.129-2.989-1.129-4.331c0-1.057,0.295-1.84,0.885-2.348
		c0.589-0.509,1.229-0.764,1.922-0.764c0.69,0,1.32,0.214,1.891,0.641c0.569,0.428,0.935,1.048,1.098,1.861
		c0.244,1.22,0.681,2.358,1.312,3.416c0.63,1.058,1.434,1.962,2.41,2.715c0.976,0.752,2.104,1.342,3.385,1.768
		c1.281,0.428,2.694,0.641,4.24,0.641c1.26,0,2.49-0.172,3.69-0.518c1.199-0.346,2.276-0.854,3.232-1.525
		c0.955-0.671,1.718-1.525,2.288-2.562c0.568-1.037,0.854-2.246,0.854-3.629c0-3.334-1.006-5.673-3.02-7.016
		c-2.013-1.342-4.992-2.012-8.937-2.012c-0.772,0-1.342-0.265-1.708-0.794c-0.365-0.528-0.549-1.098-0.549-1.708
		c0-0.61,0.184-1.179,0.549-1.708c0.366-0.528,0.936-0.793,1.708-0.793c3.904,0,6.659-0.589,8.266-1.769
		c1.606-1.179,2.409-2.948,2.409-5.307c0-0.976-0.243-1.88-0.731-2.714c-0.488-0.833-1.149-1.565-1.982-2.196
		c-0.834-0.63-1.79-1.128-2.867-1.495c-1.078-0.366-2.227-0.549-3.446-0.549C532.088,282.997,529.943,283.536,528.175,284.613z"/>
	<path id="_x34_" d="M485.469,417.031c0.122-0.367,0.346-0.772,0.672-1.221l20.008-25.986c0.203-0.324,0.538-0.609,1.006-0.854
		s0.986-0.366,1.556-0.366c0.936,0,1.738,0.326,2.41,0.976c0.671,0.651,1.006,1.444,1.006,2.379v25.254h4.393
		c0.771,0,1.434,0.275,1.982,0.824s0.823,1.211,0.823,1.982c0,0.814-0.274,1.484-0.823,2.014c-0.549,0.528-1.211,0.793-1.982,0.793
		h-4.393v7.625c0,0.895-0.315,1.656-0.945,2.287c-0.631,0.631-1.394,0.945-2.287,0.945c-0.896,0-1.658-0.314-2.288-0.945
		c-0.631-0.631-0.945-1.393-0.945-2.287v-7.625h-15.921c-1.22,0-2.268-0.428-3.142-1.281c-0.875-0.854-1.312-1.891-1.312-3.111
		C485.286,417.865,485.347,417.396,485.469,417.031z M492.058,417.213h13.603v-18.055L492.058,417.213z"/>
	<path id="_x35_" d="M424.662,474.604c0.813,0,1.525,0.296,2.135,0.885c0.61,0.59,0.915,1.312,0.915,2.165
		c0,0.814-0.305,1.525-0.915,2.135c-0.609,0.61-1.321,0.916-2.135,0.916h-13.969l-2.44,10.674c0.284-0.161,0.681-0.385,1.189-0.67
		c0.508-0.284,1.139-0.58,1.892-0.885c0.752-0.305,1.636-0.569,2.653-0.793c1.016-0.223,2.155-0.336,3.416-0.336
		c2.439,0,4.625,0.428,6.558,1.281c1.931,0.854,3.578,2.004,4.94,3.446c1.362,1.444,2.41,3.132,3.142,5.063
		c0.732,1.932,1.099,3.975,1.099,6.131c0,2.48-0.448,4.696-1.343,6.648s-2.104,3.609-3.629,4.972
		c-1.525,1.362-3.294,2.409-5.308,3.142c-2.013,0.731-4.138,1.098-6.374,1.098c-2.928,0-5.45-0.479-7.564-1.434
		s-3.854-2.074-5.215-3.355c-1.363-1.28-2.37-2.592-3.02-3.934c-0.651-1.342-0.977-2.379-0.977-3.111
		c0-0.895,0.325-1.617,0.977-2.166c0.649-0.549,1.361-0.822,2.135-0.822c0.528,0,1.026,0.143,1.494,0.426
		c0.468,0.285,0.844,0.754,1.129,1.403c0.935,2.115,2.236,3.804,3.904,5.063c1.667,1.261,3.965,1.891,6.893,1.891
		c1.382,0,2.715-0.223,3.995-0.671c1.281-0.447,2.399-1.087,3.355-1.921c0.955-0.834,1.718-1.861,2.287-3.081
		s0.854-2.603,0.854-4.147c0-1.627-0.285-3.051-0.854-4.271s-1.332-2.247-2.287-3.081c-0.956-0.832-2.074-1.463-3.355-1.891
		c-1.28-0.427-2.613-0.641-3.995-0.641c-1.464,0-2.725,0.163-3.782,0.488c-1.058,0.326-1.973,0.712-2.745,1.159
		c-0.772,0.448-1.424,0.905-1.951,1.372c-0.529,0.469-0.997,0.845-1.403,1.129c-0.366,0.285-0.723,0.479-1.067,0.579
		c-0.347,0.103-0.682,0.153-1.007,0.153c-0.854,0-1.546-0.336-2.074-1.008c-0.528-0.67-0.793-1.473-0.793-2.408
		c0-0.203,0.04-0.509,0.122-0.916l3.6-16.348c0.122-0.609,0.264-1.18,0.427-1.708c0.162-0.528,0.406-0.985,0.731-1.372
		s0.793-0.691,1.403-0.916c0.61-0.223,1.423-0.335,2.44-0.335H424.662z"/>
	<path id="_x36_" d="M283.902,520.178c0.793-2.867,1.973-5.369,3.538-7.504s3.486-3.822,5.765-5.062
		c2.277-1.24,4.9-1.861,7.869-1.861c2.44,0,4.534,0.396,6.283,1.189c1.748,0.793,3.191,1.719,4.331,2.776
		c1.138,1.058,1.972,2.125,2.501,3.202c0.527,1.078,0.793,1.882,0.793,2.41c0,0.854-0.326,1.535-0.977,2.043
		c-0.65,0.509-1.362,0.763-2.135,0.763c-0.448,0-0.885-0.101-1.312-0.306c-0.427-0.203-0.783-0.527-1.067-0.976
		c-1.058-1.626-2.247-2.968-3.568-4.026c-1.322-1.057-3.061-1.586-5.216-1.586c-1.627,0-3.03,0.285-4.209,0.854
		c-1.18,0.569-2.187,1.312-3.02,2.227c-0.834,0.915-1.516,1.942-2.043,3.08c-0.529,1.14-0.946,2.288-1.251,3.446
		c-0.305,1.16-0.509,2.278-0.61,3.355c-0.102,1.078-0.152,2.004-0.152,2.775c0.325-0.527,0.844-1.088,1.556-1.678
		c0.711-0.589,1.565-1.138,2.562-1.646c0.996-0.508,2.124-0.925,3.385-1.25c1.261-0.326,2.623-0.488,4.087-0.488
		c1.789,0,3.619,0.346,5.49,1.037c1.87,0.691,3.568,1.688,5.094,2.988c1.525,1.303,2.765,2.867,3.721,4.697
		c0.955,1.83,1.434,3.904,1.434,6.222c0,2.562-0.427,4.81-1.281,6.741c-0.854,1.932-2.013,3.559-3.477,4.879
		c-1.464,1.322-3.172,2.318-5.124,2.99c-1.952,0.67-4.026,1.006-6.222,1.006c-2.522,0-4.88-0.468-7.076-1.402
		c-2.196-0.936-4.098-2.369-5.704-4.301s-2.866-4.341-3.781-7.229c-0.915-2.887-1.373-6.283-1.373-10.188
		C282.713,526.104,283.109,523.044,283.902,520.178z M304.582,546.407c1.239-0.509,2.327-1.21,3.263-2.104s1.678-1.941,2.227-3.142
		c0.55-1.199,0.824-2.491,0.824-3.874c0-1.381-0.274-2.693-0.824-3.934c-0.549-1.24-1.302-2.309-2.257-3.203
		c-0.956-0.895-2.084-1.605-3.386-2.135c-1.302-0.527-2.684-0.793-4.147-0.793c-1.383,0-2.675,0.244-3.874,0.732
		c-1.199,0.487-2.247,1.158-3.141,2.013c-0.896,0.854-1.607,1.882-2.136,3.08c-0.528,1.2-0.793,2.491-0.793,3.874
		c0,1.464,0.274,2.816,0.824,4.057c0.549,1.24,1.29,2.317,2.226,3.232s2.023,1.638,3.264,2.166c1.24,0.529,2.572,0.793,3.996,0.793
		C302.029,547.17,303.341,546.916,304.582,546.407z"/>
	<path id="_x37_" d="M173.201,474.489c0.61-0.589,1.321-0.885,2.135-0.885h24.278c0.894,0,1.656,0.306,2.287,0.915
		c0.63,0.609,0.945,1.363,0.945,2.257c0,0.692-0.121,1.302-0.365,1.83c-0.244,0.529-0.549,1.007-0.915,1.434
		s-0.784,0.854-1.251,1.281c-0.468,0.427-0.945,0.905-1.434,1.433c-1.464,1.627-3.029,3.682-4.696,6.162
		c-1.668,2.48-3.203,5.195-4.605,8.143c-1.403,2.949-2.573,6.061-3.508,9.334c-0.937,3.273-1.403,6.518-1.403,9.729
		c0,0.937-0.346,1.76-1.037,2.471s-1.524,1.068-2.501,1.068c-0.976,0-1.81-0.357-2.501-1.068s-1.037-1.534-1.037-2.471
		c0-1.707,0.254-3.599,0.763-5.672c0.508-2.074,1.21-4.229,2.104-6.467c0.895-2.236,1.932-4.492,3.111-6.771
		c1.179-2.276,2.419-4.482,3.721-6.617c1.301-2.136,2.633-4.139,3.996-6.01c1.361-1.869,2.693-3.496,3.995-4.879h-19.947
		c-0.813,0-1.524-0.306-2.135-0.916c-0.61-0.609-0.915-1.32-0.915-2.135C172.286,475.801,172.591,475.079,173.201,474.489z"/>
	<path id="_x38_" d="M84.872,418.506c0.772-1.383,1.678-2.562,2.715-3.538s2.043-1.739,3.02-2.288
		c0.976-0.549,1.687-0.844,2.135-0.885c-1.79-0.731-3.324-1.869-4.605-3.416c-1.281-1.545-1.922-3.455-1.922-5.733
		c0-1.911,0.387-3.608,1.159-5.093s1.84-2.725,3.202-3.722c1.362-0.996,2.989-1.759,4.881-2.288
		c1.891-0.527,3.954-0.793,6.191-0.793c2.235,0,4.29,0.266,6.161,0.793c1.869,0.529,3.497,1.292,4.88,2.288
		c1.382,0.997,2.46,2.237,3.232,3.722s1.159,3.182,1.159,5.093c0,1.14-0.174,2.187-0.519,3.142c-0.346,0.956-0.813,1.82-1.403,2.592
		c-0.59,0.773-1.28,1.445-2.073,2.014c-0.793,0.57-1.638,1.037-2.532,1.402c0.406,0.041,1.108,0.336,2.104,0.885
		s2.014,1.312,3.051,2.288s1.941,2.155,2.714,3.538s1.159,2.928,1.159,4.636c0,2.074-0.407,3.985-1.22,5.733
		c-0.814,1.75-1.993,3.264-3.538,4.545c-1.546,1.281-3.427,2.278-5.643,2.989c-2.217,0.711-4.728,1.067-7.533,1.067
		c-2.645,0-5.063-0.356-7.26-1.067c-2.195-0.711-4.087-1.708-5.673-2.989s-2.816-2.795-3.69-4.545
		c-0.875-1.748-1.312-3.659-1.312-5.733C83.713,421.434,84.1,419.889,84.872,418.506z M112.108,419.42
		c-0.671-1.098-1.546-2.002-2.623-2.714c-1.078-0.711-2.309-1.22-3.69-1.524c-1.383-0.306-2.766-0.458-4.147-0.458
		c-1.424,0-2.816,0.152-4.179,0.458c-1.363,0.305-2.583,0.813-3.66,1.524c-1.078,0.712-1.952,1.616-2.623,2.714
		c-0.671,1.099-1.007,2.44-1.007,4.027c0,1.586,0.336,2.948,1.007,4.086c0.671,1.139,1.545,2.055,2.623,2.746
		c1.077,0.691,2.297,1.199,3.66,1.524c1.362,0.325,2.755,0.487,4.179,0.487c1.382,0,2.765-0.162,4.147-0.487
		c1.382-0.325,2.612-0.833,3.69-1.524c1.077-0.691,1.952-1.607,2.623-2.746c0.671-1.138,1.007-2.5,1.007-4.086
		C113.115,421.86,112.779,420.519,112.108,419.42z M109.943,399.748c-0.529-0.833-1.22-1.525-2.074-2.074
		c-0.854-0.549-1.83-0.965-2.928-1.25c-1.099-0.284-2.196-0.428-3.294-0.428c-1.099,0-2.196,0.144-3.294,0.428
		c-1.099,0.285-2.074,0.701-2.929,1.25c-0.854,0.549-1.546,1.241-2.073,2.074c-0.529,0.834-0.814,1.799-0.854,2.897
		c-0.041,1.14,0.203,2.136,0.732,2.989c0.527,0.854,1.229,1.576,2.104,2.166c0.874,0.59,1.87,1.036,2.988,1.342
		c1.118,0.305,2.227,0.457,3.325,0.457c1.098,0,2.205-0.152,3.324-0.457c1.118-0.306,2.114-0.752,2.989-1.342
		c0.874-0.59,1.575-1.312,2.104-2.166c0.527-0.854,0.771-1.85,0.731-2.989C110.756,401.547,110.472,400.582,109.943,399.748z"/>
	<path id="_x39_" d="M82.531,308.111c-0.814,2.867-1.993,5.367-3.538,7.503c-1.546,2.135-3.457,3.812-5.734,5.032
		c-2.277,1.221-4.9,1.83-7.868,1.83c-2.522,0-4.708-0.468-6.558-1.402c-1.852-0.936-3.386-2.023-4.605-3.264
		c-1.221-1.24-2.126-2.48-2.715-3.722c-0.59-1.239-0.885-2.165-0.885-2.775c0-0.935,0.346-1.667,1.037-2.196
		c0.691-0.527,1.423-0.793,2.196-0.793c0.488,0,0.935,0.113,1.342,0.336c0.406,0.225,0.711,0.601,0.915,1.129
		c0.406,1.058,0.885,2.033,1.434,2.928s1.199,1.657,1.952,2.287c0.752,0.631,1.637,1.129,2.653,1.494
		c1.016,0.367,2.216,0.549,3.599,0.549c1.099,0,2.297-0.191,3.6-0.578c1.301-0.387,2.521-1.149,3.66-2.288
		c1.138-1.138,2.094-2.714,2.866-4.728s1.159-4.666,1.159-7.961c-0.326,0.407-0.823,0.885-1.494,1.434s-1.495,1.078-2.471,1.586
		c-0.976,0.51-2.104,0.945-3.386,1.312c-1.281,0.365-2.694,0.549-4.239,0.549c-1.79,0-3.62-0.346-5.49-1.037
		c-1.871-0.691-3.568-1.688-5.094-2.989c-1.524-1.302-2.766-2.867-3.721-4.697c-0.956-1.83-1.434-3.904-1.434-6.222
		c0-2.562,0.428-4.819,1.281-6.771c0.854-1.952,2.013-3.589,3.477-4.911c1.465-1.321,3.162-2.318,5.094-2.989
		c1.932-0.671,3.996-1.007,6.191-1.007c2.562,0,4.931,0.479,7.106,1.434c2.176,0.956,4.077,2.39,5.704,4.3
		c1.626,1.912,2.897,4.311,3.812,7.198c0.915,2.888,1.372,6.283,1.372,10.187C83.751,302.164,83.344,305.244,82.531,308.111z
		 M61.853,281.82c-1.221,0.509-2.299,1.21-3.233,2.104c-0.936,0.895-1.678,1.942-2.227,3.141c-0.549,1.2-0.823,2.492-0.823,3.874
		c0,1.424,0.274,2.745,0.823,3.965c0.549,1.22,1.301,2.287,2.257,3.202c0.955,0.915,2.084,1.638,3.386,2.166
		c1.301,0.529,2.684,0.793,4.148,0.793c1.382,0,2.673-0.244,3.873-0.732c1.199-0.488,2.246-1.168,3.142-2.043
		c0.894-0.874,1.605-1.9,2.135-3.081c0.528-1.179,0.793-2.46,0.793-3.843c0-1.464-0.274-2.815-0.823-4.057
		c-0.549-1.24-1.292-2.328-2.227-3.264c-0.936-0.935-2.034-1.667-3.294-2.196c-1.261-0.528-2.604-0.793-4.026-0.793
		C64.373,281.058,63.072,281.312,61.853,281.82z"/>
	<g id="_x31_0">
		<path d="M88.24,168.509c0.366-0.691,0.731-1.332,1.098-1.922c0.366-0.589,0.772-1.067,1.221-1.433
			c0.446-0.366,1.057-0.549,1.829-0.549c0.854,0,1.596,0.305,2.227,0.915s0.946,1.363,0.946,2.257v38.674
			c0,0.895-0.306,1.657-0.915,2.288c-0.61,0.631-1.363,0.945-2.258,0.945s-1.657-0.314-2.287-0.945
			c-0.631-0.63-0.945-1.393-0.945-2.288v-29.219h-5.429c-0.692,0-1.271-0.223-1.739-0.671c-0.468-0.447-0.701-1.016-0.701-1.708
			c0-0.691,0.192-1.209,0.579-1.556c0.387-0.345,0.854-0.65,1.403-0.915c0.549-0.264,1.138-0.528,1.77-0.793
			c0.63-0.264,1.189-0.64,1.677-1.128C87.365,169.851,87.874,169.201,88.24,168.509z"/>
		<path d="M104.101,204.529c-3.011-3.965-4.515-9.77-4.515-17.416c0-7.645,1.504-13.451,4.515-17.416
			c3.009-3.965,7.381-5.948,13.114-5.948c5.734,0,10.116,1.982,13.146,5.948c3.029,3.965,4.545,9.771,4.545,17.416
			c0,7.646-1.516,13.45-4.545,17.416c-3.029,3.965-7.411,5.947-13.146,5.947C111.481,210.477,107.109,208.494,104.101,204.529z
			 M125.664,173.999c-1.852-3.09-4.667-4.636-8.449-4.636c-3.741,0-6.548,1.546-8.418,4.636c-1.871,3.091-2.806,7.463-2.806,13.115
			c0,5.694,0.935,10.075,2.806,13.146c1.87,3.071,4.677,4.605,8.418,4.605c3.782,0,6.598-1.535,8.449-4.605
			c1.85-3.07,2.775-7.452,2.775-13.146C128.439,181.461,127.514,177.089,125.664,173.999z"/>
	</g>
	<g id="_x31_1">
		<path d="M174.24,83.509c0.366-0.691,0.731-1.332,1.098-1.922c0.366-0.589,0.772-1.067,1.221-1.433
			c0.446-0.366,1.057-0.549,1.829-0.549c0.854,0,1.596,0.305,2.227,0.915s0.946,1.363,0.946,2.257v38.674
			c0,0.895-0.306,1.657-0.915,2.288c-0.61,0.631-1.363,0.945-2.258,0.945s-1.657-0.314-2.287-0.945
			c-0.631-0.63-0.945-1.393-0.945-2.288V92.231h-5.429c-0.692,0-1.271-0.223-1.739-0.671c-0.468-0.447-0.701-1.016-0.701-1.708
			c0-0.691,0.192-1.209,0.579-1.556c0.387-0.345,0.854-0.65,1.403-0.915c0.549-0.264,1.138-0.528,1.77-0.793
			c0.63-0.264,1.189-0.64,1.677-1.128C173.365,84.851,173.874,84.201,174.24,83.509z"/>
		<path d="M192.113,83.509c0.366-0.691,0.731-1.332,1.098-1.922c0.366-0.589,0.772-1.067,1.221-1.433
			c0.446-0.366,1.057-0.549,1.829-0.549c0.854,0,1.596,0.305,2.227,0.915s0.946,1.363,0.946,2.257v38.674
			c0,0.895-0.306,1.657-0.915,2.288c-0.61,0.631-1.363,0.945-2.258,0.945s-1.657-0.314-2.287-0.945
			c-0.631-0.63-0.945-1.393-0.945-2.288V92.231H187.6c-0.692,0-1.271-0.223-1.739-0.671c-0.468-0.447-0.701-1.016-0.701-1.708
			c0-0.691,0.192-1.209,0.579-1.556c0.387-0.345,0.854-0.65,1.403-0.915c0.549-0.264,1.138-0.528,1.77-0.793
			c0.63-0.264,1.189-0.64,1.677-1.128C191.238,84.851,191.747,84.201,192.113,83.509z"/>
	</g>
	<g id="_x31_2">
		<path d="M282.24,53.509c0.366-0.691,0.731-1.332,1.098-1.922c0.366-0.589,0.772-1.067,1.221-1.433
			c0.446-0.366,1.057-0.549,1.829-0.549c0.854,0,1.596,0.305,2.227,0.915s0.946,1.363,0.946,2.257v38.674
			c0,0.895-0.306,1.657-0.915,2.288c-0.61,0.631-1.363,0.945-2.258,0.945s-1.657-0.314-2.287-0.945
			c-0.631-0.63-0.945-1.393-0.945-2.288V62.231h-5.429c-0.692,0-1.271-0.223-1.739-0.671c-0.468-0.447-0.701-1.016-0.701-1.708
			c0-0.691,0.192-1.209,0.579-1.556c0.387-0.345,0.854-0.65,1.403-0.915c0.549-0.264,1.138-0.528,1.77-0.793
			c0.63-0.264,1.189-0.64,1.677-1.128C281.365,54.851,281.874,54.201,282.24,53.509z"/>
		<path d="M296.026,56.681c0.935-1.667,2.165-3.081,3.69-4.24c1.525-1.159,3.242-2.063,5.154-2.714
			c1.911-0.65,3.822-0.976,5.734-0.976c2.276,0,4.392,0.356,6.344,1.067c1.952,0.712,3.639,1.699,5.063,2.958
			c1.423,1.261,2.531,2.776,3.324,4.545s1.189,3.711,1.189,5.825c0,2.44-0.488,4.463-1.464,6.07c-0.977,1.607-2.298,3.03-3.965,4.27
			c-1.668,1.241-3.62,2.45-5.856,3.629c-2.237,1.18-4.616,2.562-7.137,4.148c-1.018,0.651-1.922,1.333-2.715,2.043
			c-0.793,0.712-1.475,1.403-2.043,2.074c-0.57,0.671-1.007,1.292-1.312,1.861c-0.306,0.57-0.458,1.017-0.458,1.342
			c0,0.326,0.142,0.488,0.427,0.488h20.13c0.772,0,1.434,0.274,1.983,0.823c0.549,0.549,0.823,1.21,0.823,1.982
			c0,0.773-0.274,1.434-0.823,1.982c-0.55,0.549-1.211,0.824-1.983,0.824h-24.521c-1.139,0-2.095-0.396-2.867-1.189
			s-1.159-1.739-1.159-2.836c0-1.057,0.355-2.206,1.067-3.447c0.711-1.24,1.617-2.48,2.715-3.721c1.098-1.24,2.308-2.419,3.63-3.538
			c1.32-1.118,2.592-2.083,3.812-2.897c1.952-1.26,3.843-2.419,5.673-3.477c1.83-1.057,3.456-2.135,4.88-3.233
			c1.423-1.098,2.562-2.247,3.416-3.447c0.854-1.199,1.281-2.592,1.281-4.178c0-1.504-0.266-2.785-0.793-3.843
			c-0.529-1.057-1.23-1.921-2.104-2.592c-0.875-0.671-1.882-1.159-3.02-1.464c-1.14-0.305-2.318-0.458-3.538-0.458
			c-1.221,0-2.4,0.173-3.538,0.518c-1.139,0.346-2.156,0.845-3.05,1.495c-0.896,0.651-1.617,1.464-2.166,2.44
			s-0.823,2.074-0.823,3.294c0,1.302-0.336,2.278-1.007,2.928c-0.671,0.651-1.413,0.976-2.227,0.976s-1.546-0.314-2.195-0.946
			c-0.651-0.63-0.977-1.595-0.977-2.897C294.623,60.179,295.09,58.349,296.026,56.681z"/>
	</g>
</g>
<g id="hoursPointer">
	<circle id="hpc" cx="300" cy="300" r="13.066"/>
	<g id="hp-07">
		<path d="M312.969,264.132L201.773,458.756c-1.539,2.694-0.815,6.228,1.822,7.861c2.733,1.692,6.303,0.789,7.911-1.967
			l113.072-193.816c1.871-3.208,0.778-7.326-2.438-9.182l0,0C318.924,259.795,314.811,260.907,312.969,264.132z"/>
	</g>
</g>
<g id="minutesPointer">
	<g id="mp-00">
		<path d="M306.449,344.322l-2.912-287.729c-0.017-1.673-1.157-3.185-2.797-3.517c-2.261-0.459-4.253,1.244-4.275,3.425
			l-2.913,287.822c-0.036,3.587,2.861,6.514,6.449,6.514l0,0C303.587,350.836,306.485,347.909,306.449,344.322z"/>
	</g>
</g>
<g id="secondsPointer">
	<path id="sp-15_00000014627900531831576650000006217630499077326757_" style="fill:#961C1F;" d="M219.164,299.998
		c0,3.235,2.652,5.842,5.887,5.787l324.701-5.529c0.138-0.002,0.248-0.114,0.248-0.25c0-0.137-0.111-0.248-0.248-0.25
		l-324.701-5.544C221.816,294.156,219.164,296.763,219.164,299.998L219.164,299.998z"/>
	<circle id="spc" style="fill:#961C1F;" cx="300" cy="300" r="10"/>
</g>
</svg>
