<?xml version="1.0" encoding="utf-8"?>
<!-- Designer: @JMSsMarcelo  -->
<svg version="1.1" id="Clock" xmlns="http://www.w3.org/2000/svg" xmlns:xlink="http://www.w3.org/1999/xlink" x="0px" y="0px"
	 width="308px" height="100px" viewBox="0 0 308 100" style="enable-background:new 0 0 308 100;" xml:space="preserve">
<style type="text/css">
	.st0{opacity:0.5;}
</style>
<g id="hour0">
	<path id="h0-5" d="M49.6,50.4L40.3,56v26.9l9.4,9.4c1.1-1.2,1.7-2.8,1.7-4.5V53.7C51.4,52.3,50.7,51.1,49.6,50.4L49.6,50.4z"/>
	<path id="h0-2" d="M49.6,49.6L49.6,49.6c1.2-0.7,1.8-1.9,1.8-3.3V12.2c0-1.7-0.7-3.3-1.7-4.5l-9.4,9.3V44L49.6,49.6z"/>
</g>
<g id="hour1">
	<path id="h1-6" d="M87.6,83.3H66.3l-9.4,9.4c1.2,1.1,2.8,1.7,4.5,1.7h31.1c1.7,0,3.3-0.7,4.5-1.7L87.6,83.3z"/>
	<path id="h1-5" d="M97.3,50.4l-9.3,5.5v26.9l9.4,9.4c1.1-1.2,1.7-2.8,1.7-4.5V53.7C99.2,52.3,98.5,51.1,97.3,50.4L97.3,50.4z"/>
	<polygon id="h1-3" points="87.5,44.5 66.5,44.5 57.3,50 66.5,55.5 87.5,55.5 96.7,50 	"/>
	<path id="h1-2" d="M97.3,49.6L97.3,49.6c1.2-0.7,1.8-1.9,1.8-3.3V12.2c0-1.7-0.7-3.3-1.7-4.5l-9.4,9.4v26.9L97.3,49.6z"/>
	<path id="h1-1" d="M56.6,49.6l9.3-5.5V17.2l-9.4-9.4c-1.1,1.2-1.7,2.8-1.7,4.5v34.1C54.8,47.7,55.5,48.9,56.6,49.6L56.6,49.6z"/>
	<path id="h1-0" d="M66.3,16.7h21.3L97,7.3c-1.2-1.1-2.7-1.7-4.5-1.7H61.4c-1.7,0-3.3,0.7-4.5,1.7L66.3,16.7z"/>
</g>
<path id="colon" d="M103.9,36.9v-9.1h9.1v9.1H103.9z M103.9,75v-9.1h9.1V75H103.9z"/>
<g id="minute0">
	<path id="m0-6" d="M150.7,83.3h-21.3l-9.4,9.4c1.2,1.1,2.8,1.7,4.5,1.7h31.1c1.7,0,3.3-0.7,4.5-1.7L150.7,83.3z"/>
	<path id="m0-5" d="M160.5,50.4l-9.3,5.5v26.9l9.4,9.4c1.1-1.2,1.7-2.8,1.7-4.5V53.7C162.3,52.3,161.6,51.1,160.5,50.4L160.5,50.4z"
		/>
	<path id="m0-4" d="M119.7,50.4L119.7,50.4c-1.2,0.7-1.8,1.9-1.8,3.3v34.1c0,1.7,0.7,3.3,1.7,4.5l9.4-9.4V55.9L119.7,50.4z"/>
	<path id="m0-2" d="M160.5,49.6L160.5,49.6c1.2-0.7,1.8-1.9,1.8-3.3V12.2c0-1.7-0.7-3.3-1.7-4.5l-9.4,9.4v26.9L160.5,49.6z"/>
	<path id="m0-1" d="M119.7,49.6l9.3-5.5V17.2l-9.4-9.4c-1.1,1.2-1.7,2.8-1.7,4.5v34.1C117.8,47.7,118.6,48.9,119.7,49.6L119.7,49.6z
		"/>
	<path id="m0-0" d="M129.5,16.7h21.3l9.4-9.4c-1.2-1.1-2.8-1.7-4.5-1.7h-31.1c-1.7,0-3.3,0.7-4.5,1.7L129.5,16.7z"/>
</g>
<g id="minute1">
	<path id="m1-5" d="M209.3,50.4l-9.3,5.5v26.9l9.4,9.4c1.1-1.2,1.7-2.8,1.7-4.5V53.7C211.2,52.3,210.5,51.1,209.3,50.4L209.3,50.4z"
		/>
	<path id="m1-2" d="M209.3,49.6L209.3,49.6c1.2-0.7,1.8-1.9,1.8-3.3V12.2c0-1.7-0.7-3.3-1.7-4.5l-9.4,9.4v26.9L209.3,49.6z"/>
	<path id="m1-0" d="M178.3,16.7h21.3l9.4-9.4c-1.2-1.1-2.8-1.7-4.5-1.7h-31.1c-1.7,0-3.3,0.7-4.5,1.7L178.3,16.7z"/>
</g>
<g id="second0" class="st0">
	<path id="s0-6" d="M247,80h-14.9l-7.7,6.5c0.7,0.7,1.7,1.2,2.9,1.2H249c1.2,0,2.4-0.5,3.3-1.2L247,80z"/>
	<path id="s0-5" d="M257.8,57l-7.2,3.9l-3.3,18.8l5.4,6.5c0.9-0.8,1.5-1.9,1.8-3.1l4.2-23.8C258.8,58.4,258.5,57.5,257.8,57
		L257.8,57z"/>
	<path id="s0-4" d="M229.3,57L229.3,57c-0.9,0.5-1.5,1.3-1.7,2.3l-4.2,23.8c-0.2,1.2,0,2.3,0.7,3.1l7.7-6.5l3.3-18.8L229.3,57z"/>
	<path id="s0-2" d="M257.8,56.5L257.8,56.5c0.9-0.5,1.5-1.3,1.7-2.3l4.2-23.8c0.2-1.2,0-2.3-0.7-3.1l-7.7,6.5L252,52.6L257.8,56.5z"
		/>
	<path id="s0-1" d="M229.4,56.5l7.2-3.9l3.3-18.8l-5.4-6.5c-0.9,0.8-1.5,1.9-1.8,3.1l-4.2,23.8C228.3,55.2,228.7,56,229.4,56.5
		L229.4,56.5z"/>
	<path id="s0-0" d="M240.2,33.5h14.8l7.7-6.5c-0.7-0.7-1.7-1.2-2.9-1.2h-21.7c-1.2,0-2.4,0.5-3.3,1.2L240.2,33.5z"/>
</g>
<g id="second1" class="st0">
	<path id="s1-5" d="M294.5,57l-7.2,3.9L284,79.7l5.4,6.5c0.9-0.8,1.5-1.9,1.8-3.1l4.2-23.8C295.5,58.4,295.2,57.5,294.5,57L294.5,57
		z"/>
	<path id="s1-2" d="M294.5,56.5L294.5,56.5c0.9-0.5,1.5-1.3,1.7-2.3l4.2-23.8c0.2-1.2,0-2.3-0.7-3.1l-7.7,6.5l-3.3,18.8L294.5,56.5z
		"/>
	<path id="s1-0" d="M276.9,33.5h14.8l7.7-6.5c-0.7-0.7-1.7-1.2-2.9-1.2h-21.7c-1.2,0-2.4,0.5-3.3,1.2L276.9,33.5z"/>
</g>
</svg>
